<?xml version="1.0" encoding="UTF-8"?>
<!DOCTYPE svg PUBLIC "-//W3C//DTD SVG 1.1//EN" "http://www.w3.org/Graphics/SVG/1.1/DTD/svg11.dtd">
<!-- Creator: CorelDRAW 2020 -->
<svg xmlns="http://www.w3.org/2000/svg" xml:space="preserve" width="2.4556mm" height="2.4586mm" version="1.1" style="shape-rendering:geometricPrecision; text-rendering:geometricPrecision; image-rendering:optimizeQuality; fill-rule:evenodd; clip-rule:evenodd"
viewBox="0 0 18.64 18.67"
 xmlns:xlink="http://www.w3.org/1999/xlink"
 xmlns:xodm="http://www.corel.com/coreldraw/odm/2003">
 <defs>
  <style type="text/css">
   <![CDATA[
    .fil0 {fill:#FEFEFE}
   ]]>
  </style>
 </defs>
 <g id="Camada_x0020_1">
  <metadata id="CorelCorpID_0Corel-Layer"/>
  <path class="fil0" d="M5.16 1.69c0.23,-0.04 0.47,-0.06 0.72,-0.08 0.24,-0.02 0.49,-0.02 0.74,-0.02 0.73,0 1.49,0.08 2.25,0.16l0.01 0c0.9,0.09 1.81,0.19 2.69,0.15 0.87,-0.04 1.71,-0.21 2.46,-0.64 0.26,-0.15 0.46,-0.3 0.62,-0.44 0.16,-0.14 0.28,-0.28 0.38,-0.39 0.11,-0.13 0.21,-0.23 0.31,-0.31 0.1,-0.08 0.21,-0.12 0.36,-0.12 0.24,0 0.4,0.08 0.49,0.22 0.09,0.14 0.13,0.32 0.13,0.53 0,0.23 -0.04,0.48 -0.08,0.69l-0.03 0.18c-0.1,0.59 -0.18,1.11 -0.27,1.63 -0.09,0.52 -0.2,1.04 -0.33,1.64 -0.03,0.12 -0.07,0.28 -0.12,0.46l-0.01 0.03c-0.09,0.34 -0.2,0.74 -0.22,0.95 0.02,0.02 0.04,0.03 0.06,0.05 0.02,0.02 0.04,0.04 0.06,0.05l0 0c0.03,0.03 0.06,0.06 0.09,0.08 0.19,0.16 0.36,0.29 0.51,0.42 0.15,0.12 0.3,0.23 0.44,0.34 0.15,0.11 0.3,0.21 0.47,0.32 0.17,0.11 0.37,0.23 0.6,0.37 0.09,0.05 0.18,0.1 0.26,0.15 0.08,0.04 0.16,0.08 0.23,0.12 0.23,0.11 0.4,0.2 0.51,0.32 0.12,0.12 0.18,0.27 0.18,0.51 0,0.1 -0.01,0.19 -0.03,0.27 -0.02,0.08 -0.04,0.15 -0.08,0.22 -0.03,0.07 -0.07,0.13 -0.11,0.18 -0.04,0.06 -0.08,0.11 -0.13,0.16 -0.03,0.04 -0.07,0.08 -0.12,0.13 -0.04,0.05 -0.09,0.1 -0.14,0.15 -0.05,0.05 -0.09,0.09 -0.14,0.14 -0.04,0.04 -0.08,0.07 -0.11,0.1 -0.99,0.83 -2.04,1.19 -3.12,1.31 -1.08,0.12 -2.18,0.01 -3.29,-0.11 -0.66,-0.07 -1.32,-0.14 -1.97,-0.15 -0.65,-0.02 -1.29,0.02 -1.92,0.15 -0.29,0.06 -0.55,0.15 -0.79,0.25 -0.24,0.1 -0.45,0.22 -0.64,0.34 -0.19,0.13 -0.37,0.27 -0.53,0.42 -0.16,0.15 -0.31,0.3 -0.46,0.46 -0.02,0.02 -0.04,0.04 -0.05,0.05 -0.01,0.01 -0.02,0.02 -0.02,0.03 -0,0.01 -0,0.02 0,0.04 0,0.02 0.01,0.05 0.02,0.09l0.33 1.19 0.12 0.41c0.25,0.85 0.73,2.48 0.67,2.82 -0.03,0.14 -0.08,0.26 -0.16,0.38 -0.08,0.12 -0.19,0.22 -0.31,0.3 -0.12,0.08 -0.26,0.15 -0.41,0.19 -0.15,0.04 -0.31,0.07 -0.47,0.07 -0.88,0 -1.05,-0.71 -1.23,-1.44l-0 0c-0.01,-0.06 -0.03,-0.11 -0.04,-0.17 -0.01,-0.06 -0.03,-0.11 -0.04,-0.17 -0.38,-1.34 -0.75,-2.69 -1.12,-4.03 -0.75,-2.68 -1.49,-5.37 -2.26,-8.05 -0.05,-0.19 -0.1,-0.36 -0.11,-0.53 -0.01,-0.18 0.02,-0.36 0.12,-0.57 0.04,-0.09 0.09,-0.17 0.15,-0.25 0.06,-0.07 0.13,-0.14 0.21,-0.2 0.08,-0.06 0.16,-0.11 0.25,-0.14 0.09,-0.04 0.19,-0.07 0.29,-0.09 0.27,-0.05 0.47,-0.02 0.63,0.04 0.16,0.06 0.29,0.16 0.4,0.26 0.02,-0.02 0.03,-0.03 0.05,-0.05 0.02,-0.02 0.04,-0.04 0.06,-0.07 0.03,-0.03 0.06,-0.06 0.09,-0.09 0.03,-0.03 0.06,-0.06 0.09,-0.09 0.12,-0.11 0.23,-0.2 0.35,-0.29 0.11,-0.09 0.22,-0.17 0.34,-0.24 0.11,-0.08 0.23,-0.15 0.36,-0.22 0.13,-0.07 0.27,-0.14 0.42,-0.2 0.21,-0.09 0.43,-0.17 0.65,-0.23 0.22,-0.06 0.45,-0.11 0.69,-0.15zm-4 2.27c-0.06,0.02 -0.11,0.04 -0.15,0.07 -0.03,0.03 -0.05,0.05 -0.06,0.09 -0.01,0.04 -0.01,0.1 -0,0.16 0.01,0.07 0.03,0.14 0.05,0.22l1 3.57c0.61,2.17 1.24,4.37 1.81,6.5 0.08,0.29 0.17,0.6 0.25,0.9 0.2,0.69 0.39,1.39 0.58,2.08 0.02,0.07 0.04,0.12 0.09,0.15 0.05,0.03 0.13,0.02 0.25,-0.01 0.28,-0.08 0.26,-0.15 0.19,-0.39 -0.53,-1.88 -1.06,-3.78 -1.58,-5.67 -0.62,-2.23 -1.24,-4.46 -1.87,-6.7 -0.03,-0.09 -0.05,-0.18 -0.08,-0.27 -0.03,-0.09 -0.05,-0.18 -0.07,-0.26 -0.02,-0.08 -0.04,-0.15 -0.06,-0.22 -0.02,-0.07 -0.05,-0.12 -0.09,-0.16 -0.02,-0.03 -0.06,-0.05 -0.1,-0.06 -0.04,-0.01 -0.1,-0.01 -0.17,0.01zm3.55 8.16l0.04 -0.04c0.15,-0.14 0.34,-0.33 0.61,-0.53 0.08,-0.05 0.16,-0.11 0.24,-0.16 0.08,-0.05 0.16,-0.1 0.25,-0.15 0.08,-0.05 0.17,-0.09 0.26,-0.14 0.09,-0.04 0.18,-0.09 0.28,-0.13 0.77,-0.32 1.58,-0.44 2.42,-0.45 0.84,-0.02 1.7,0.07 2.56,0.16l0 0c1.7,0.17 3.38,0.34 4.79,-0.3 0.15,-0.07 0.34,-0.18 0.55,-0.32 0.19,-0.12 0.38,-0.27 0.54,-0.41 0.11,-0.09 0.2,-0.19 0.28,-0.28 0.06,-0.08 0.11,-0.15 0.14,-0.21 -0.06,-0.03 -0.14,-0.08 -0.24,-0.14 -0.1,-0.06 -0.22,-0.12 -0.32,-0.18l-0.01 -0.01c-0.14,-0.08 -0.25,-0.14 -0.32,-0.18 -0.22,-0.14 -0.43,-0.27 -0.62,-0.4 -0.19,-0.13 -0.37,-0.26 -0.54,-0.39 -0.17,-0.13 -0.34,-0.26 -0.52,-0.41 -0.18,-0.15 -0.36,-0.3 -0.55,-0.47 -0.04,-0.04 -0.08,-0.08 -0.12,-0.12 -0.04,-0.04 -0.07,-0.09 -0.09,-0.15 -0.03,-0.06 -0.05,-0.12 -0.06,-0.19 -0.01,-0.07 -0.01,-0.15 -0.01,-0.23 0.04,-0.41 0.23,-1.16 0.4,-1.8 0.07,-0.27 0.14,-0.53 0.18,-0.72 0.04,-0.17 0.09,-0.45 0.15,-0.76 0.05,-0.27 0.1,-0.57 0.15,-0.86 0.02,-0.14 0.04,-0.27 0.06,-0.4 0.02,-0.1 0.03,-0.2 0.04,-0.29 -0.17,0.15 -0.39,0.33 -0.68,0.52 -0.31,0.2 -0.7,0.39 -1.21,0.54 -0.72,0.21 -1.47,0.28 -2.24,0.27 -0.77,-0 -1.55,-0.08 -2.33,-0.15 -1.16,-0.11 -2.3,-0.21 -3.34,-0.08 -1.04,0.14 -1.98,0.51 -2.72,1.37 -0.03,0.04 -0.07,0.08 -0.1,0.11l-0 0c-0.04,0.04 -0.07,0.07 -0.09,0.11 -0.02,0.04 -0.02,0.1 0.01,0.18 0.29,1 0.59,2.04 0.88,3.09 0.29,1.04 0.58,2.1 0.87,3.14 0.04,0.16 0.09,0.32 0.14,0.49 0.1,0.34 0.19,0.69 0.28,1.03z"/>
 </g>
</svg>
